<mxfile host="app.diagrams.net" agent="Mozilla/5.0 (Windows NT 10.0; Win64; x64) AppleWebKit/537.36 (KHTML, like Gecko) Chrome/131.0.0.0 Safari/537.36" version="26.0.5">
  <diagram name="Page-1" id="j0lLHCOknAyVKFKyBZGa">
    <mxGraphModel grid="1" page="1" gridSize="10" guides="1" tooltips="1" connect="1" arrows="1" fold="1" pageScale="1" pageWidth="850" pageHeight="1100" math="0" shadow="0">
      <root>
        <mxCell id="0" />
        <mxCell id="1" parent="0" />
        <mxCell id="BR2aq6sNMjBqUebuZWKb-2" value="&quot;optional&quot;&lt;br&gt;&lt;b&gt;dct:PeriodOfTime&lt;/b&gt;" style="swimlane;fontStyle=0;childLayout=stackLayout;horizontal=1;startSize=30;horizontalStack=0;resizeParent=1;resizeParentMax=0;resizeLast=0;collapsible=1;marginBottom=0;whiteSpace=wrap;html=1;" vertex="1" parent="1">
          <mxGeometry x="540" y="780" width="230" height="150" as="geometry" />
        </mxCell>
        <mxCell id="BR2aq6sNMjBqUebuZWKb-3" value="&quot;recommended&quot;&lt;br&gt;&lt;font color=&quot;#cc0000&quot;&gt;- dcat:endDate:xsd::dateTime [0..1]&lt;br&gt;- dcat:startDate:xsd::dateTime [0..1]&lt;/font&gt;" style="text;strokeColor=none;fillColor=none;align=left;verticalAlign=middle;spacingLeft=4;spacingRight=4;overflow=hidden;points=[[0,0.5],[1,0.5]];portConstraint=eastwest;rotatable=0;whiteSpace=wrap;html=1;" vertex="1" parent="BR2aq6sNMjBqUebuZWKb-2">
          <mxGeometry y="30" width="230" height="60" as="geometry" />
        </mxCell>
        <mxCell id="BR2aq6sNMjBqUebuZWKb-6" value="&quot;optional&quot;&lt;br&gt;&lt;font color=&quot;#cc0000&quot;&gt;- dcat:endDate:xsd::dateTime [0..1]&lt;br&gt;- dcat:startDate:xsd::dateTime [0..1]&lt;/font&gt;" style="text;strokeColor=none;fillColor=none;align=left;verticalAlign=middle;spacingLeft=4;spacingRight=4;overflow=hidden;points=[[0,0.5],[1,0.5]];portConstraint=eastwest;rotatable=0;whiteSpace=wrap;html=1;" vertex="1" parent="BR2aq6sNMjBqUebuZWKb-2">
          <mxGeometry y="90" width="230" height="60" as="geometry" />
        </mxCell>
        <mxCell id="BR2aq6sNMjBqUebuZWKb-28" value="&lt;b&gt;&lt;font style=&quot;font-size: 14px;&quot; color=&quot;#0000ff&quot;&gt;dcat:Distribution&lt;/font&gt;&lt;/b&gt;" style="swimlane;fontStyle=0;childLayout=stackLayout;horizontal=1;startSize=30;horizontalStack=0;resizeParent=1;resizeParentMax=0;resizeLast=0;collapsible=1;marginBottom=0;whiteSpace=wrap;html=1;" vertex="1" parent="1">
          <mxGeometry x="1552" y="90" width="350" height="500" as="geometry">
            <mxRectangle x="380" y="70" width="110" height="40" as="alternateBounds" />
          </mxGeometry>
        </mxCell>
        <mxCell id="BR2aq6sNMjBqUebuZWKb-29" value="&quot;mandatory&quot;&lt;br&gt;&lt;font color=&quot;#cc0000&quot;&gt;dcat:accessURL: rdfs:Resource &lt;/font&gt;&lt;font color=&quot;#00cc00&quot;&gt;[1..n]&lt;/font&gt;&lt;br&gt;&lt;font color=&quot;#cc0000&quot;&gt;dcatap:applicableLegislation rdfs:Resource&lt;/font&gt;&lt;font color=&quot;#00cc00&quot;&gt; [1..n]&lt;/font&gt;&lt;br&gt;&lt;font color=&quot;#cc0000&quot;&gt;* dct:format: dct:MediaTypeOrExtent&lt;/font&gt;&lt;font color=&quot;#00cc00&quot;&gt; [1..1]&lt;/font&gt;&lt;br&gt;&lt;font color=&quot;#cc0000&quot;&gt;* dcat:byteSize:&lt;/font&gt;&lt;font color=&quot;#00cc00&quot;&gt; &lt;/font&gt;&lt;font color=&quot;#cc0000&quot;&gt;xsd:nonNegativeInteger&lt;/font&gt;&lt;font color=&quot;#00cc00&quot;&gt; [1..1]&lt;/font&gt;&lt;br&gt;&lt;font color=&quot;#cc0000&quot;&gt;* dct:rights: dct:RightsStatement&lt;/font&gt;&lt;font color=&quot;#00cc00&quot;&gt; [1..1]&lt;/font&gt;&lt;font color=&quot;#cc0000&quot;&gt;&lt;br&gt;&lt;/font&gt;" style="text;strokeColor=none;fillColor=none;align=left;verticalAlign=middle;spacingLeft=4;spacingRight=4;overflow=hidden;points=[[0,0.5],[1,0.5]];portConstraint=eastwest;rotatable=0;whiteSpace=wrap;html=1;" vertex="1" parent="BR2aq6sNMjBqUebuZWKb-28">
          <mxGeometry y="30" width="350" height="100" as="geometry" />
        </mxCell>
        <mxCell id="BR2aq6sNMjBqUebuZWKb-30" value="&quot;recommended&quot;&lt;font color=&quot;#cc0000&quot;&gt;&lt;br&gt;dct:license: dct:LicenseDocument [0..1]&lt;br&gt;&lt;/font&gt;" style="text;strokeColor=none;fillColor=none;align=left;verticalAlign=middle;spacingLeft=4;spacingRight=4;overflow=hidden;points=[[0,0.5],[1,0.5]];portConstraint=eastwest;rotatable=0;whiteSpace=wrap;html=1;" vertex="1" parent="BR2aq6sNMjBqUebuZWKb-28">
          <mxGeometry y="130" width="350" height="50" as="geometry" />
        </mxCell>
        <mxCell id="BR2aq6sNMjBqUebuZWKb-31" value="&quot;optional&quot;&lt;br&gt;&lt;font color=&quot;#cc0000&quot;&gt;dcatap:availability: skos:Concept [0..1]&lt;/font&gt;&lt;br style=&quot;border-color: var(--border-color);&quot;&gt;&lt;font color=&quot;#cc0000&quot;&gt;dct:description: rdfs:Literal [0..n]&lt;/font&gt;&lt;br&gt;&lt;font color=&quot;#cc0000&quot;&gt;dcat:accessService: dcat:DataService [0..n]&lt;/font&gt;&lt;br&gt;&lt;font color=&quot;#cc0000&quot;&gt;spdx:checksum: spdx:Checksum [0..1]&lt;/font&gt;&lt;br&gt;&lt;font color=&quot;#cc0000&quot;&gt;dcat:compressFormat: dct:MediaType [0..1]&lt;/font&gt;&lt;br&gt;&lt;font color=&quot;#cc0000&quot;&gt;foaf:page: foaf:Document [0..n]&lt;/font&gt;&lt;br&gt;&lt;font color=&quot;#cc0000&quot;&gt;dcat:downloadURL: rdfs:Resource [0..n]&lt;/font&gt;&lt;br&gt;&lt;font color=&quot;#cc0000&quot;&gt;odrl:hasPolicy: odrl:Policy [0..1]&lt;/font&gt;&lt;br&gt;&lt;font color=&quot;#cc0000&quot;&gt;dct:language: dct:LinguisticSystem [0..n]&lt;/font&gt;&lt;br&gt;&lt;font color=&quot;#cc0000&quot;&gt;dct:conformsTo: dct:Standard [0..n]&lt;/font&gt;&lt;br&gt;&lt;font color=&quot;#cc0000&quot;&gt;dcat:mediaType (dct:format): dcat:MediaType [0..1]&lt;/font&gt;&lt;br&gt;&lt;font color=&quot;#cc0000&quot;&gt;dcat:packageFormat: dct:MediaType [0..1]&lt;/font&gt;&lt;br&gt;&lt;font color=&quot;#cc0000&quot;&gt;dct:issued: rdfs:Literal: xsd:date [0..1]&lt;/font&gt;&lt;br&gt;&lt;font color=&quot;#cc0000&quot;&gt;dcat:spatialResolutionInMeters: rdfs:Literal: xsd:decimal [0..1]&lt;/font&gt;&lt;br&gt;&lt;font color=&quot;#cc0000&quot;&gt;adms:status: skos:Concept [0..1]&lt;/font&gt;&lt;br&gt;&lt;font color=&quot;#cc0000&quot;&gt;dcat:temporalResolution: xsd:duration [0..1]&lt;/font&gt;&lt;br&gt;&lt;font color=&quot;#cc0000&quot;&gt;dct:title: rdfs:Literal [0..n]&lt;/font&gt;&lt;br&gt;&lt;font color=&quot;#cc0000&quot;&gt;dct:modified: rdfs:Literal: xsd:date [0..1]&lt;/font&gt;&lt;br&gt;&lt;br&gt;&lt;br&gt;&lt;font color=&quot;#00cc00&quot;&gt;* added mandatory properties for dcat:distribution&lt;/font&gt;" style="text;strokeColor=none;fillColor=none;align=left;verticalAlign=middle;spacingLeft=4;spacingRight=4;overflow=hidden;points=[[0,0.5],[1,0.5]];portConstraint=eastwest;rotatable=0;whiteSpace=wrap;html=1;" vertex="1" parent="BR2aq6sNMjBqUebuZWKb-28">
          <mxGeometry y="180" width="350" height="320" as="geometry" />
        </mxCell>
        <mxCell id="sPD8ruUdRvM_z9ucQwdK-4" value="&lt;b&gt;&lt;font style=&quot;font-size: 14px;&quot;&gt;dct:LicenseDocument&lt;/font&gt;&lt;/b&gt;" style="swimlane;fontStyle=0;childLayout=stackLayout;horizontal=1;startSize=30;horizontalStack=0;resizeParent=1;resizeParentMax=0;resizeLast=0;collapsible=1;marginBottom=0;whiteSpace=wrap;html=1;" vertex="1" parent="1">
          <mxGeometry x="43" y="-99" width="230" height="90" as="geometry">
            <mxRectangle x="380" y="70" width="110" height="40" as="alternateBounds" />
          </mxGeometry>
        </mxCell>
        <mxCell id="sPD8ruUdRvM_z9ucQwdK-6" value="&quot;recommended&quot;&lt;br&gt;&lt;font color=&quot;#cc0000&quot;&gt;dct:type: skos:Concept [0..1]&lt;br&gt;&lt;/font&gt;" style="text;strokeColor=none;fillColor=none;align=left;verticalAlign=middle;spacingLeft=4;spacingRight=4;overflow=hidden;points=[[0,0.5],[1,0.5]];portConstraint=eastwest;rotatable=0;whiteSpace=wrap;html=1;" vertex="1" parent="sPD8ruUdRvM_z9ucQwdK-4">
          <mxGeometry y="30" width="230" height="60" as="geometry" />
        </mxCell>
        <mxCell id="sPD8ruUdRvM_z9ucQwdK-13" value="&lt;b&gt;DatasetSeries&lt;/b&gt;" style="swimlane;fontStyle=0;childLayout=stackLayout;horizontal=1;startSize=30;horizontalStack=0;resizeParent=1;resizeParentMax=0;resizeLast=0;collapsible=1;marginBottom=0;whiteSpace=wrap;html=1;" vertex="1" parent="1">
          <mxGeometry x="1310" y="1100" width="320" height="270" as="geometry">
            <mxRectangle x="380" y="70" width="110" height="40" as="alternateBounds" />
          </mxGeometry>
        </mxCell>
        <mxCell id="sPD8ruUdRvM_z9ucQwdK-14" value="&quot;mandatory&quot;&lt;br&gt;&lt;font color=&quot;#cc0000&quot;&gt;dct:title: rdfs:Literal [1..n]&lt;br&gt;dcatap:applicableLegislation rdfs:Resource&lt;/font&gt;&lt;font color=&quot;#00cc00&quot;&gt; [1..n]&lt;/font&gt;&lt;font color=&quot;#cc0000&quot;&gt;&lt;br&gt;&lt;/font&gt;" style="text;strokeColor=none;fillColor=none;align=left;verticalAlign=middle;spacingLeft=4;spacingRight=4;overflow=hidden;points=[[0,0.5],[1,0.5]];portConstraint=eastwest;rotatable=0;whiteSpace=wrap;html=1;" vertex="1" parent="sPD8ruUdRvM_z9ucQwdK-13">
          <mxGeometry y="30" width="320" height="60" as="geometry" />
        </mxCell>
        <mxCell id="sPD8ruUdRvM_z9ucQwdK-16" value="&quot;recommended&quot;&lt;br&gt;&lt;font color=&quot;#cc0000&quot;&gt;dcat:contactPoint: vcard:Kind [1..n]&lt;br&gt;dct:spatial: dct:Location [0..n]&lt;br&gt;dct:publisher: &lt;/font&gt;&lt;font color=&quot;#ff14f7&quot;&gt;foaf:Agent&lt;/font&gt;&lt;font color=&quot;#cc0000&quot;&gt; [0..1]&lt;br&gt;dct:temporal: dct:PeriodOfTime [0..n]&amp;nbsp;&lt;br&gt;&lt;/font&gt;" style="text;strokeColor=none;fillColor=none;align=left;verticalAlign=middle;spacingLeft=4;spacingRight=4;overflow=hidden;points=[[0,0.5],[1,0.5]];portConstraint=eastwest;rotatable=0;whiteSpace=wrap;html=1;" vertex="1" parent="sPD8ruUdRvM_z9ucQwdK-13">
          <mxGeometry y="90" width="320" height="80" as="geometry" />
        </mxCell>
        <mxCell id="sPD8ruUdRvM_z9ucQwdK-15" value="&quot;optional&quot;&lt;br&gt;&lt;font color=&quot;#cc0000&quot;&gt;dct:description: rdfs:Literal [1..n]&lt;br&gt;dct:accrualPeriodicity: dct:Frequency [0..1]&lt;br&gt;dct:issued: TemporalLiteral [0..1]&lt;br&gt;dct:modified: TemporalLiteral [0..1]&lt;br&gt;&lt;br&gt;&lt;/font&gt;" style="text;strokeColor=none;fillColor=none;align=left;verticalAlign=middle;spacingLeft=4;spacingRight=4;overflow=hidden;points=[[0,0.5],[1,0.5]];portConstraint=eastwest;rotatable=0;whiteSpace=wrap;html=1;" vertex="1" parent="sPD8ruUdRvM_z9ucQwdK-13">
          <mxGeometry y="170" width="320" height="100" as="geometry" />
        </mxCell>
        <mxCell id="J__374BZSMIU1kpbdkvT-2" value="&lt;b&gt;&lt;font style=&quot;font-size: 14px;&quot; color=&quot;#0000ff&quot;&gt;dcat:Dataset&lt;/font&gt;&lt;/b&gt;" style="swimlane;fontStyle=0;childLayout=stackLayout;horizontal=1;startSize=30;horizontalStack=0;resizeParent=1;resizeParentMax=0;resizeLast=0;collapsible=1;marginBottom=0;whiteSpace=wrap;html=1;" vertex="1" parent="1">
          <mxGeometry x="950" y="80" width="390" height="910" as="geometry">
            <mxRectangle x="380" y="70" width="110" height="40" as="alternateBounds" />
          </mxGeometry>
        </mxCell>
        <mxCell id="J__374BZSMIU1kpbdkvT-3" value="&quot;mandatory&quot;&lt;font color=&quot;#cc0000&quot;&gt;&lt;br&gt;dct:description: rdfs:Literal [1..n]&lt;br&gt;dct:title: rdfs:Literal [1..n]&lt;/font&gt;&lt;div&gt;&lt;font color=&quot;#cc0000&quot;&gt;dct:identifier: rdfs:Literal:&lt;/font&gt;&lt;font color=&quot;#00cc00&quot;&gt; xsd:anyURI [1..n]&lt;/font&gt;&lt;br&gt;&lt;font color=&quot;#cc0000&quot;&gt;dcatap:applicableLegislation rdfs:Resource&lt;/font&gt;&lt;font color=&quot;#00cc00&quot;&gt; [1..n]&lt;/font&gt;&lt;br&gt;&lt;font color=&quot;#cc0000&quot;&gt;dcat:theme (dct:subject): skos:Concept&lt;/font&gt;&lt;font color=&quot;#00cc00&quot;&gt; [1..n]&lt;/font&gt;&lt;font color=&quot;#00cc00&quot;&gt;&lt;br&gt;&lt;/font&gt;&lt;/div&gt;&lt;div&gt;&lt;font color=&quot;#cc0000&quot;&gt;dct:accessRights: dct:RightsStatement&lt;/font&gt;&lt;font color=&quot;#00cc00&quot;&gt; [1..1]&lt;/font&gt;&lt;/div&gt;&lt;div&gt;&lt;font style=&quot;background-color: initial;&quot; color=&quot;#cc0000&quot;&gt;dct:publisher:&lt;/font&gt;&lt;font style=&quot;background-color: initial;&quot; color=&quot;#00cc00&quot;&gt;&amp;nbsp;&lt;/font&gt;&lt;font style=&quot;background-color: initial;&quot; color=&quot;#ff14f7&quot;&gt;foaf:Agent&lt;/font&gt;&lt;font style=&quot;background-color: initial;&quot; color=&quot;#00cc00&quot;&gt;&amp;nbsp;[0..1]&lt;/font&gt;&lt;font color=&quot;#00cc00&quot;&gt;&lt;br&gt;&lt;/font&gt;&lt;font color=&quot;#cc0000&quot;&gt;dcat:distribution:&lt;/font&gt;&lt;font color=&quot;#00cc00&quot;&gt; &lt;/font&gt;&lt;font color=&quot;#0000ff&quot;&gt;dcat:Distribution&lt;/font&gt;&lt;font color=&quot;#00cc00&quot;&gt; [1..n]&lt;/font&gt;&lt;br&gt;&lt;/div&gt;&lt;div&gt;&lt;font color=&quot;#00cc00&quot;&gt;healthdcatap:hdab&amp;nbsp;&lt;/font&gt;&lt;font color=&quot;#ff14f7&quot;&gt;foaf:Agent&lt;/font&gt;&lt;font color=&quot;#00cc00&quot;&gt;&amp;nbsp;[1..1]&lt;/font&gt;&lt;/div&gt;&lt;div&gt;&lt;font color=&quot;#00cc00&quot;&gt;heathdcatap:healthCategory: (dct:subject) skos:Concept [1..n]&lt;/font&gt;&lt;span style=&quot;background-color: initial;&quot;&gt;&lt;br&gt;&lt;/span&gt;&lt;/div&gt;" style="text;strokeColor=none;fillColor=none;align=left;verticalAlign=middle;spacingLeft=4;spacingRight=4;overflow=hidden;points=[[0,0.5],[1,0.5]];portConstraint=eastwest;rotatable=0;whiteSpace=wrap;html=1;" vertex="1" parent="J__374BZSMIU1kpbdkvT-2">
          <mxGeometry y="30" width="390" height="180" as="geometry" />
        </mxCell>
        <mxCell id="J__374BZSMIU1kpbdkvT-4" value="&quot;recommended&quot;&lt;font color=&quot;#cc0000&quot;&gt;&lt;br&gt;&lt;/font&gt;&lt;div&gt;&lt;div&gt;&lt;div&gt;&lt;font color=&quot;#cc0000&quot;&gt;dcat:contactPoint: vcard:Kind&lt;/font&gt;&lt;font color=&quot;#00cc00&quot;&gt;&amp;nbsp;[0..n]&lt;/font&gt;&lt;br&gt;&lt;font color=&quot;#cc0000&quot;&gt;dcat:keyword: rdfs:Literal&lt;/font&gt;&lt;font color=&quot;#00cc00&quot;&gt;&amp;nbsp;[0..n]&lt;/font&gt;&lt;font color=&quot;#cc0000&quot;&gt;&lt;br&gt;&lt;/font&gt;&lt;/div&gt;&lt;/div&gt;&lt;/div&gt;" style="text;strokeColor=none;fillColor=none;align=left;verticalAlign=middle;spacingLeft=4;spacingRight=4;overflow=hidden;points=[[0,0.5],[1,0.5]];portConstraint=eastwest;rotatable=0;whiteSpace=wrap;html=1;" vertex="1" parent="J__374BZSMIU1kpbdkvT-2">
          <mxGeometry y="210" width="390" height="60" as="geometry" />
        </mxCell>
        <mxCell id="J__374BZSMIU1kpbdkvT-5" value="&quot;optional&quot;&lt;br&gt;&lt;span style=&quot;color: rgb(204, 0, 0);&quot;&gt;adms:identifier: adms:Identifier [0..n]&lt;/span&gt;&lt;font color=&quot;#cc0000&quot;&gt;&lt;br&gt;&lt;/font&gt;&lt;div&gt;&lt;font color=&quot;#cc0000&quot;&gt;adms:sample:&lt;/font&gt;&lt;font color=&quot;#00cc00&quot;&gt;&amp;nbsp;&lt;/font&gt;&lt;font color=&quot;#0000ff&quot;&gt;dcat:Distribution&lt;/font&gt;&lt;font color=&quot;#00cc00&quot;&gt;&amp;nbsp;[0..n]&lt;/font&gt;&lt;div&gt;&lt;span style=&quot;color: rgb(204, 0, 0);&quot;&gt;adms:versionNotes: rdfs:Literal [0..n]&lt;/span&gt;&lt;/div&gt;&lt;div&gt;&lt;span style=&quot;color: rgb(204, 0, 0);&quot;&gt;dcat:landingPage: foaf:Document [0..n]&lt;/span&gt;&lt;/div&gt;&lt;div&gt;&lt;span style=&quot;color: rgb(204, 0, 0);&quot;&gt;dcat:qualifiedRelation: dcat:Relationship [0..n]&lt;/span&gt;&lt;/div&gt;&lt;div&gt;&lt;span style=&quot;color: rgb(204, 0, 0);&quot;&gt;dcat:spatialResolutionInMeters: rdfs:Literal: xsd:decimal [0..1]&lt;/span&gt;&lt;/div&gt;&lt;div&gt;&lt;span style=&quot;color: rgb(204, 0, 0);&quot;&gt;dcat:temporalResolution rdfs:Literal: xsd:duration [0..1]&lt;/span&gt;&lt;/div&gt;&lt;div&gt;&lt;span style=&quot;color: rgb(204, 0, 0);&quot;&gt;dct:accrualPeriodicity: dct:Frequency [0..1]&lt;/span&gt;&lt;/div&gt;&lt;div&gt;&lt;span style=&quot;color: rgb(0, 204, 0);&quot;&gt;dct:alternative: rdfs:Literal [0..1]&lt;/span&gt;&lt;/div&gt;&lt;div&gt;&lt;span style=&quot;color: rgb(204, 0, 0);&quot;&gt;dct:conformsTo: dct:Standard [0..n]&lt;/span&gt;&lt;/div&gt;&lt;div&gt;&lt;font color=&quot;#cc0000&quot;&gt;dct:creator:&amp;nbsp;&lt;/font&gt;&lt;font color=&quot;#ff14f7&quot;&gt;foaf:Agent&lt;/font&gt;&lt;font color=&quot;#cc0000&quot;&gt;&amp;nbsp;[0..n]&lt;/font&gt;&lt;/div&gt;&lt;div&gt;&lt;font color=&quot;#cc0000&quot;&gt;dct:hasVersion:&amp;nbsp;&lt;/font&gt;&lt;font color=&quot;#0000ff&quot;&gt;dcat:Dataset&lt;/font&gt;&lt;font color=&quot;#cc0000&quot;&gt;&amp;nbsp;[0..n]&lt;/font&gt;&lt;/div&gt;&lt;div&gt;&lt;span style=&quot;color: rgb(204, 0, 0);&quot;&gt;dct:inSeries: dcat:DataSeries&amp;nbsp;[0..n]&lt;/span&gt;&lt;/div&gt;&lt;div&gt;&lt;span style=&quot;color: rgb(204, 0, 0);&quot;&gt;dct:isReferencedBy: rdfs:Resource [0..n]&lt;/span&gt;&lt;/div&gt;&lt;div&gt;&lt;font color=&quot;#cc0000&quot;&gt;dct:issued: rdfs:Literal: xsd:date [0..1]&lt;/font&gt;&lt;/div&gt;&lt;div&gt;&lt;span style=&quot;color: rgb(204, 0, 0);&quot;&gt;dct:language: dct:LinguisticSystem [0..n]&lt;/span&gt;&lt;font color=&quot;#cc0000&quot;&gt;&lt;br&gt;dct:modified: rdfs:Literal: xsd:date [0..1]&lt;/font&gt;&lt;/div&gt;&lt;div&gt;&lt;font color=&quot;#cc0000&quot;&gt;dct:provenance: dct:ProvenanceStatement&lt;/font&gt;&lt;font color=&quot;#00cc00&quot;&gt;&amp;nbsp;[0..n]&lt;/font&gt;&lt;font color=&quot;#cc0000&quot;&gt;&lt;/font&gt;&lt;/div&gt;&lt;div&gt;&lt;font style=&quot;background-color: initial;&quot; color=&quot;#cc0000&quot;&gt;dct:publisher:&lt;/font&gt;&lt;font style=&quot;background-color: initial;&quot; color=&quot;#00cc00&quot;&gt;&amp;nbsp;&lt;/font&gt;&lt;font style=&quot;background-color: initial;&quot; color=&quot;#ff14f7&quot;&gt;foaf:Agent&lt;/font&gt;&lt;font style=&quot;background-color: initial;&quot; color=&quot;#00cc00&quot;&gt;&amp;nbsp;[0..1]&lt;/font&gt;&lt;font color=&quot;#cc0000&quot;&gt;&lt;br&gt;&lt;/font&gt;&lt;span style=&quot;color: rgb(204, 0, 0);&quot;&gt;dct:relation: rdfs:Resource [0..n]&lt;/span&gt;&lt;/div&gt;&lt;div&gt;&lt;font color=&quot;#cc0000&quot;&gt;dct:source:&amp;nbsp;&lt;/font&gt;&lt;font color=&quot;#0000ff&quot;&gt;dcat:Dataset&lt;/font&gt;&lt;font color=&quot;#cc0000&quot;&gt;&amp;nbsp;[0..n]&lt;/font&gt;&lt;font color=&quot;#cc0000&quot;&gt;&lt;br&gt;&lt;/font&gt;&lt;div&gt;&lt;font color=&quot;#cc0000&quot;&gt;dct:spatial: dct:Location&lt;/font&gt;&lt;font color=&quot;#00cc00&quot;&gt;&amp;nbsp;[0..n]&lt;/font&gt;&lt;/div&gt;&lt;div&gt;&lt;span style=&quot;color: rgb(204, 0, 0);&quot;&gt;dct:temporal: dct:PeriodOfTime [0..n]&lt;/span&gt;&lt;/div&gt;&lt;div&gt;&lt;font color=&quot;#cc0000&quot;&gt;dct:type: skos:Concept [0..1]&lt;/font&gt;&lt;/div&gt;&lt;div&gt;&lt;span style=&quot;color: rgb(0, 204, 0);&quot;&gt;dpv:hasLegalBasis dpv:LegalBasis [0..n]&lt;/span&gt;&lt;/div&gt;&lt;div&gt;&lt;span style=&quot;color: rgb(0, 204, 0);&quot;&gt;dpv:hasPersonalData dpv:PersonalData [0..n]&lt;/span&gt;&lt;/div&gt;&lt;div&gt;&lt;span style=&quot;color: rgb(0, 204, 0);&quot;&gt;dpv:hasPurpose dpv:Purpose [0..n]&lt;/span&gt;&lt;/div&gt;&lt;div&gt;&lt;span style=&quot;color: rgb(0, 204, 0);&quot;&gt;dqv:hasQualityAnnotation dqv:QualityCertificate [0..n]&lt;/span&gt;&lt;/div&gt;&lt;div&gt;&lt;span style=&quot;color: rgb(204, 0, 0);&quot;&gt;foaf:page: foaf:Document [0..n]&lt;/span&gt;&lt;/div&gt;&lt;div&gt;&lt;font color=&quot;#00cc00&quot;&gt;healthdcatap:analytics:&amp;nbsp;&lt;/font&gt;&lt;font color=&quot;#0000ff&quot;&gt;dcat:Distribution&lt;/font&gt;&lt;font color=&quot;#00cc00&quot;&gt;&amp;nbsp;[0..n]&lt;/font&gt;&lt;/div&gt;&lt;div&gt;&lt;span style=&quot;color: rgb(0, 204, 0);&quot;&gt;healthdcatap:hasCodeValues: skos:Concept [0..n]&lt;/span&gt;&lt;/div&gt;&lt;div&gt;&lt;span style=&quot;color: rgb(0, 204, 0);&quot;&gt;healthdcatap:hasCodingSystem dct:Standard [0..n]&lt;/span&gt;&lt;/div&gt;&lt;div&gt;&lt;span style=&quot;color: rgb(0, 204, 0);&quot;&gt;healthdcatap:healthTheme: (dct:subject) skos:Concept [0..n]&lt;/span&gt;&lt;/div&gt;&lt;div&gt;&lt;span style=&quot;color: rgb(0, 204, 0);&quot;&gt;healthdcatap:maxTypicalAge rdfs:nonNegativInteger [0..1]&lt;/span&gt;&lt;/div&gt;&lt;div&gt;&lt;span style=&quot;color: rgb(0, 204, 0);&quot;&gt;healthdcatap:minTypicalAge rdfs:nonNegativInteger [0..1]&lt;/span&gt;&lt;/div&gt;&lt;div&gt;&lt;span style=&quot;color: rgb(0, 204, 0); background-color: initial;&quot;&gt;healthdcatap:numberofRecords rdfs:nonNegativInteger [0..1]&lt;br&gt;&lt;/span&gt;&lt;span style=&quot;color: rgb(0, 204, 0); background-color: initial;&quot;&gt;healthdcatap:numberofUniqueIndividuals rdfs:nonNegativInteger [0..1]&lt;/span&gt;&lt;/div&gt;&lt;div&gt;&lt;span style=&quot;color: rgb(0, 204, 0);&quot;&gt;healthdcatap:populationCoverage rdfs:Literal [0..n]&lt;/span&gt;&lt;/div&gt;&lt;div&gt;&lt;span style=&quot;color: rgb(0, 204, 0);&quot;&gt;healthdcatap:retentionPeriod dct:PeriodOfTime [0..1]&lt;/span&gt;&lt;/div&gt;&lt;div&gt;&lt;span style=&quot;color: rgb(204, 0, 0);&quot;&gt;owl:versionInfo: rdfs:Literal [0..1]&lt;/span&gt;&lt;font color=&quot;#00cc00&quot;&gt;&lt;br&gt;&lt;/font&gt;&lt;div&gt;&lt;font color=&quot;#cc0000&quot;&gt;prov:qualifiedAttribution prov:attribution [0..n]&lt;/font&gt;&lt;br&gt;&lt;font color=&quot;#cc0000&quot;&gt;prov:wasGeneratedBy: prov:Activity [0..n]&lt;/font&gt;&lt;/div&gt;&lt;/div&gt;&lt;/div&gt;&lt;/div&gt;" style="text;strokeColor=none;fillColor=none;align=left;verticalAlign=middle;spacingLeft=4;spacingRight=4;overflow=hidden;points=[[0,0.5],[1,0.5]];portConstraint=eastwest;rotatable=0;whiteSpace=wrap;html=1;" vertex="1" parent="J__374BZSMIU1kpbdkvT-2">
          <mxGeometry y="270" width="390" height="640" as="geometry" />
        </mxCell>
        <mxCell id="J__374BZSMIU1kpbdkvT-6" value="&lt;b&gt;&lt;font style=&quot;font-size: 14px;&quot; color=&quot;#0000ff&quot;&gt;dcat:Catalog&lt;/font&gt;&lt;/b&gt;" style="swimlane;fontStyle=0;childLayout=stackLayout;horizontal=1;startSize=30;horizontalStack=0;resizeParent=1;resizeParentMax=0;resizeLast=0;collapsible=1;marginBottom=0;whiteSpace=wrap;html=1;" vertex="1" parent="1">
          <mxGeometry x="-2" y="300" width="282" height="410" as="geometry">
            <mxRectangle x="380" y="70" width="110" height="40" as="alternateBounds" />
          </mxGeometry>
        </mxCell>
        <mxCell id="J__374BZSMIU1kpbdkvT-7" value="&quot;mandatory&quot;&lt;br&gt;&lt;font color=&quot;#cc0000&quot;&gt;dct:title: rdfs:Literal [1..n]&lt;br&gt;dcat:description: rdfs:Literal [1..n]&lt;br&gt;dct:publisher: &lt;/font&gt;&lt;font color=&quot;#ff14f7&quot;&gt;foaf:Agent&lt;/font&gt;&lt;font color=&quot;#cc0000&quot;&gt; [1..1]&lt;br&gt;&lt;/font&gt;&lt;font color=&quot;#00cc00&quot;&gt;dcatap:applicableLegislation rdfs:Resource [1..n]&lt;/font&gt;&lt;font color=&quot;#cc0000&quot;&gt;&lt;br&gt;&lt;/font&gt;" style="text;strokeColor=none;fillColor=none;align=left;verticalAlign=middle;spacingLeft=4;spacingRight=4;overflow=hidden;points=[[0,0.5],[1,0.5]];portConstraint=eastwest;rotatable=0;whiteSpace=wrap;html=1;" vertex="1" parent="J__374BZSMIU1kpbdkvT-6">
          <mxGeometry y="30" width="282" height="90" as="geometry" />
        </mxCell>
        <mxCell id="J__374BZSMIU1kpbdkvT-8" value="&quot;recommended&quot;&lt;br&gt;&lt;font color=&quot;#cc0000&quot;&gt;dcat:themeTaxonomy: skos:ConceptScheme [0..n]&lt;/font&gt;&lt;br&gt;&lt;font color=&quot;#cc0000&quot;&gt;dcat:dataset: &lt;/font&gt;&lt;font color=&quot;#0000ff&quot;&gt;dcat:Dataset&lt;/font&gt;&lt;font color=&quot;#cc0000&quot;&gt; [0..n]&lt;/font&gt;&lt;br&gt;&lt;font color=&quot;#cc0000&quot;&gt;dcat:service dcat:DataService [0..n]&lt;/font&gt;&lt;br&gt;&lt;font color=&quot;#cc0000&quot;&gt;foaf:homepage: foaf:Document [0..1]&lt;/font&gt;&lt;br&gt;&lt;font color=&quot;#cc0000&quot;&gt;dct:language: dct:LinguisticSystem [0..n]&lt;/font&gt;&lt;br&gt;&lt;font color=&quot;#cc0000&quot;&gt;dct:license: dct:LicenseDocument [0..1]&lt;/font&gt;&lt;br&gt;&lt;font color=&quot;#cc0000&quot;&gt;dct:issued: rdfs:Literal: xsd:date [0..1]&lt;/font&gt;&lt;br&gt;&lt;font color=&quot;#cc0000&quot;&gt;dct:spatial: dct:Location [0..n]&lt;/font&gt;&lt;br&gt;&lt;font color=&quot;#cc0000&quot;&gt;dcat:themeTaxonomy: skos:ConceptScheme [0..n]&lt;/font&gt;&lt;br&gt;&lt;font color=&quot;#cc0000&quot;&gt;dct:modified: rdfs:Literal: xsd:date [0..1]&lt;/font&gt;" style="text;strokeColor=none;fillColor=none;align=left;verticalAlign=middle;spacingLeft=4;spacingRight=4;overflow=hidden;points=[[0,0.5],[1,0.5]];portConstraint=eastwest;rotatable=0;whiteSpace=wrap;html=1;" vertex="1" parent="J__374BZSMIU1kpbdkvT-6">
          <mxGeometry y="120" width="282" height="170" as="geometry" />
        </mxCell>
        <mxCell id="J__374BZSMIU1kpbdkvT-9" value="&quot;optional&quot;&lt;br&gt;&lt;font color=&quot;#cc0000&quot;&gt;dct:hasPart: &lt;/font&gt;&lt;font color=&quot;#0000ff&quot;&gt;dcat:Catalog&lt;/font&gt;&lt;font color=&quot;#cc0000&quot;&gt; [0..n]&lt;/font&gt;&lt;font color=&quot;#cc0000&quot;&gt;&lt;br&gt;dcat:record: &lt;/font&gt;&lt;font color=&quot;#0000ff&quot;&gt;dcat:CatalogRecord&lt;/font&gt;&lt;font color=&quot;#cc0000&quot;&gt; [0..n]&lt;br&gt;dct:rights: dct:RightsStatement [0..1]&lt;br&gt;dcat:catalog: &lt;/font&gt;&lt;font color=&quot;#0000ff&quot;&gt;dcat:Catalog&lt;/font&gt;&lt;font color=&quot;#cc0000&quot;&gt; [0..n]&lt;br&gt;dct:creator: &lt;/font&gt;&lt;font color=&quot;#ff14f7&quot;&gt;foaf:Agent&lt;/font&gt;&lt;font color=&quot;#cc0000&quot;&gt; [0..n]&lt;br&gt;dct:temporal: dct:PeriodOfTime [0..n]&lt;br&gt;&lt;/font&gt;" style="text;strokeColor=none;fillColor=none;align=left;verticalAlign=middle;spacingLeft=4;spacingRight=4;overflow=hidden;points=[[0,0.5],[1,0.5]];portConstraint=eastwest;rotatable=0;whiteSpace=wrap;html=1;" vertex="1" parent="J__374BZSMIU1kpbdkvT-6">
          <mxGeometry y="290" width="282" height="120" as="geometry" />
        </mxCell>
        <mxCell id="J__374BZSMIU1kpbdkvT-10" value="&lt;b&gt;&lt;font color=&quot;#ff14f7&quot;&gt;foaf:Agent&lt;/font&gt;&lt;/b&gt;" style="swimlane;fontStyle=0;childLayout=stackLayout;horizontal=1;startSize=30;horizontalStack=0;resizeParent=1;resizeParentMax=0;resizeLast=0;collapsible=1;marginBottom=0;whiteSpace=wrap;html=1;" vertex="1" parent="1">
          <mxGeometry x="540" y="1140" width="300" height="190" as="geometry">
            <mxRectangle x="380" y="70" width="110" height="40" as="alternateBounds" />
          </mxGeometry>
        </mxCell>
        <mxCell id="J__374BZSMIU1kpbdkvT-11" value="&quot;mandatory&quot;&lt;br&gt;&lt;font color=&quot;#cc0000&quot;&gt;foaf:name: rdfs:Literal [1..n]&lt;/font&gt;&lt;br&gt;&lt;font color=&quot;#00cc00&quot;&gt;foaf:homepage: rdfs:Resource [1..1]&lt;br&gt;foaf:mbox: rdfs:Resource [1..1]&lt;/font&gt;" style="text;strokeColor=none;fillColor=none;align=left;verticalAlign=middle;spacingLeft=4;spacingRight=4;overflow=hidden;points=[[0,0.5],[1,0.5]];portConstraint=eastwest;rotatable=0;whiteSpace=wrap;html=1;" vertex="1" parent="J__374BZSMIU1kpbdkvT-10">
          <mxGeometry y="30" width="300" height="80" as="geometry" />
        </mxCell>
        <mxCell id="J__374BZSMIU1kpbdkvT-12" value="&quot;recommended&quot;&lt;br&gt;&lt;font color=&quot;#cc0000&quot;&gt;dct:type: skos:Concept [0..1]&lt;br&gt;&lt;/font&gt;&lt;div&gt;&lt;span style=&quot;color: rgb(0, 204, 0);&quot;&gt;healthdcatap:publisherType: skos:Concept [0..1]&lt;/span&gt;&lt;br style=&quot;color: rgb(0, 204, 0);&quot;&gt;&lt;span style=&quot;color: rgb(0, 204, 0);&quot;&gt;healthdcatap:publisherNote rdfs:Literal [0..1]&lt;/span&gt;&lt;font color=&quot;#cc0000&quot;&gt;&lt;br&gt;&lt;/font&gt;&lt;/div&gt;&lt;div&gt;&lt;span style=&quot;color: rgb(0, 204, 0);&quot;&gt;healthdcatap:trustedDataHolder xsd:boolean [0..1]&lt;/span&gt;&lt;span style=&quot;color: rgb(0, 204, 0);&quot;&gt;&lt;/span&gt;&lt;/div&gt;" style="text;strokeColor=none;fillColor=none;align=left;verticalAlign=middle;spacingLeft=4;spacingRight=4;overflow=hidden;points=[[0,0.5],[1,0.5]];portConstraint=eastwest;rotatable=0;whiteSpace=wrap;html=1;" vertex="1" parent="J__374BZSMIU1kpbdkvT-10">
          <mxGeometry y="110" width="300" height="80" as="geometry" />
        </mxCell>
        <mxCell id="J__374BZSMIU1kpbdkvT-13" value="&lt;font color=&quot;#00cc00&quot;&gt;&quot;mandatory&quot;&lt;/font&gt;&lt;br&gt;&lt;b&gt;dct:Location&lt;/b&gt;" style="swimlane;fontStyle=0;childLayout=stackLayout;horizontal=1;startSize=30;horizontalStack=0;resizeParent=1;resizeParentMax=0;resizeLast=0;collapsible=1;marginBottom=0;whiteSpace=wrap;html=1;" vertex="1" parent="1">
          <mxGeometry x="540" y="600" width="230" height="130" as="geometry">
            <mxRectangle x="380" y="70" width="110" height="40" as="alternateBounds" />
          </mxGeometry>
        </mxCell>
        <mxCell id="J__374BZSMIU1kpbdkvT-14" value="&quot;recommended&quot;&lt;br&gt;&lt;font color=&quot;#cc0000&quot;&gt;dcat:bbox [0..1]&lt;br&gt;dcat:centroid [0..1]&lt;/font&gt;" style="text;strokeColor=none;fillColor=none;align=left;verticalAlign=middle;spacingLeft=4;spacingRight=4;overflow=hidden;points=[[0,0.5],[1,0.5]];portConstraint=eastwest;rotatable=0;whiteSpace=wrap;html=1;" vertex="1" parent="J__374BZSMIU1kpbdkvT-13">
          <mxGeometry y="30" width="230" height="60" as="geometry" />
        </mxCell>
        <mxCell id="J__374BZSMIU1kpbdkvT-15" value="&quot;optional&quot;&lt;br&gt;&lt;font color=&quot;#cc0000&quot;&gt;locn:geometry [0..1]&lt;br&gt;&lt;/font&gt;" style="text;strokeColor=none;fillColor=none;align=left;verticalAlign=middle;spacingLeft=4;spacingRight=4;overflow=hidden;points=[[0,0.5],[1,0.5]];portConstraint=eastwest;rotatable=0;whiteSpace=wrap;html=1;" vertex="1" parent="J__374BZSMIU1kpbdkvT-13">
          <mxGeometry y="90" width="230" height="40" as="geometry" />
        </mxCell>
        <mxCell id="J__374BZSMIU1kpbdkvT-16" value="&lt;b&gt;&lt;font style=&quot;font-size: 14px;&quot; color=&quot;#0000ff&quot;&gt;dcat:CatalogRecord&lt;/font&gt;&lt;/b&gt;" style="swimlane;fontStyle=0;childLayout=stackLayout;horizontal=1;startSize=30;horizontalStack=0;resizeParent=1;resizeParentMax=0;resizeLast=0;collapsible=1;marginBottom=0;whiteSpace=wrap;html=1;" vertex="1" parent="1">
          <mxGeometry x="500" y="210" width="240" height="280" as="geometry">
            <mxRectangle x="380" y="70" width="110" height="40" as="alternateBounds" />
          </mxGeometry>
        </mxCell>
        <mxCell id="J__374BZSMIU1kpbdkvT-17" value="&quot;mandatory&quot;&lt;br&gt;&lt;font color=&quot;#cc0000&quot;&gt;foaf:primaryTopic: &lt;/font&gt;&lt;font color=&quot;#0000ff&quot;&gt;dcat:Dataset&lt;/font&gt;&lt;font color=&quot;#cc0000&quot;&gt; (or dcat:Dataservice or dcat:Catalogue) [1..1]&lt;/font&gt;&lt;br&gt;&lt;font color=&quot;#cc0000&quot;&gt;dct:modified [1..1]&lt;br&gt;&lt;/font&gt;" style="text;strokeColor=none;fillColor=none;align=left;verticalAlign=middle;spacingLeft=4;spacingRight=4;overflow=hidden;points=[[0,0.5],[1,0.5]];portConstraint=eastwest;rotatable=0;whiteSpace=wrap;html=1;" vertex="1" parent="J__374BZSMIU1kpbdkvT-16">
          <mxGeometry y="30" width="240" height="90" as="geometry" />
        </mxCell>
        <mxCell id="J__374BZSMIU1kpbdkvT-18" value="&quot;recommended&quot;&lt;font color=&quot;#cc0000&quot;&gt;&lt;br&gt;dct:conformsTo: dct:Standard [0..1]&lt;br&gt;adms:status: skos:Concept [0..1]&lt;br&gt;dct:issued: rdfs:Literal: xsd:date [0..1]&lt;br&gt;&lt;/font&gt;" style="text;strokeColor=none;fillColor=none;align=left;verticalAlign=middle;spacingLeft=4;spacingRight=4;overflow=hidden;points=[[0,0.5],[1,0.5]];portConstraint=eastwest;rotatable=0;whiteSpace=wrap;html=1;" vertex="1" parent="J__374BZSMIU1kpbdkvT-16">
          <mxGeometry y="120" width="240" height="60" as="geometry" />
        </mxCell>
        <mxCell id="J__374BZSMIU1kpbdkvT-19" value="&quot;optional&quot;&lt;br&gt;&lt;font color=&quot;#cc0000&quot;&gt;dct:description: rdfs:Literal [0..n]&lt;br&gt;dct:language: dct:LinguisticSystem [0..n]&lt;br&gt;dct:source: &lt;/font&gt;&lt;font color=&quot;#0000ff&quot;&gt;dcat:CatalogRecord&lt;/font&gt;&lt;font color=&quot;#cc0000&quot;&gt; [0..1]&lt;br&gt;dct:title: rdfs:Literal [0..n]&lt;br&gt;&lt;/font&gt;" style="text;strokeColor=none;fillColor=none;align=left;verticalAlign=middle;spacingLeft=4;spacingRight=4;overflow=hidden;points=[[0,0.5],[1,0.5]];portConstraint=eastwest;rotatable=0;whiteSpace=wrap;html=1;" vertex="1" parent="J__374BZSMIU1kpbdkvT-16">
          <mxGeometry y="180" width="240" height="100" as="geometry" />
        </mxCell>
        <mxCell id="J__374BZSMIU1kpbdkvT-20" value="&lt;b&gt;&lt;font style=&quot;font-size: 14px;&quot;&gt;dcat:DataService&lt;/font&gt;&lt;/b&gt;" style="swimlane;fontStyle=0;childLayout=stackLayout;horizontal=1;startSize=30;horizontalStack=0;resizeParent=1;resizeParentMax=0;resizeLast=0;collapsible=1;marginBottom=0;whiteSpace=wrap;html=1;" vertex="1" parent="1">
          <mxGeometry x="480" y="-230" width="350" height="330" as="geometry">
            <mxRectangle x="380" y="70" width="110" height="40" as="alternateBounds" />
          </mxGeometry>
        </mxCell>
        <mxCell id="J__374BZSMIU1kpbdkvT-21" value="&quot;mandatory&quot;&lt;br&gt;&lt;font color=&quot;#cc0000&quot;&gt;dcat:endpointURL: rdfs:Resource [1..n]&lt;br&gt;dct:title: rdfs:Literal [1..n]&lt;br&gt;dcatap:applicableLegislation rdfs:Resource&lt;/font&gt;&lt;font color=&quot;#00cc00&quot;&gt; [1..n]&lt;/font&gt;&lt;font color=&quot;#cc0000&quot;&gt;&lt;br&gt;&lt;br&gt;&lt;/font&gt;" style="text;strokeColor=none;fillColor=none;align=left;verticalAlign=middle;spacingLeft=4;spacingRight=4;overflow=hidden;points=[[0,0.5],[1,0.5]];portConstraint=eastwest;rotatable=0;whiteSpace=wrap;html=1;" vertex="1" parent="J__374BZSMIU1kpbdkvT-20">
          <mxGeometry y="30" width="350" height="70" as="geometry" />
        </mxCell>
        <mxCell id="J__374BZSMIU1kpbdkvT-22" value="&quot;recommended&quot;&lt;br&gt;&lt;font color=&quot;#cc0000&quot;&gt;dcat:endpointDescription: rdfs:Resource [0..n]&lt;br&gt;dcat:servesDataset: &lt;/font&gt;&lt;font color=&quot;#0000ff&quot;&gt;dcat:Dataset&lt;/font&gt;&lt;font color=&quot;#cc0000&quot;&gt; [0..n]&lt;br&gt;dct:conformsTo: dct:Standard [0..n]&lt;br&gt;dcat:contactPoint: vcard:Kind [0..n]&lt;br&gt;dcat:keyword: rdfs:Literal [0..n]&lt;br&gt;dct:publisher: &lt;/font&gt;&lt;font color=&quot;#ff14f7&quot;&gt;foaf:Agent&lt;/font&gt;&lt;font color=&quot;#cc0000&quot;&gt; [1..1]&lt;br&gt;dcat:theme (dct:subject): skos:Concept [0..n]&lt;br&gt;&lt;/font&gt;" style="text;strokeColor=none;fillColor=none;align=left;verticalAlign=middle;spacingLeft=4;spacingRight=4;overflow=hidden;points=[[0,0.5],[1,0.5]];portConstraint=eastwest;rotatable=0;whiteSpace=wrap;html=1;" vertex="1" parent="J__374BZSMIU1kpbdkvT-20">
          <mxGeometry y="100" width="350" height="120" as="geometry" />
        </mxCell>
        <mxCell id="J__374BZSMIU1kpbdkvT-23" value="&quot;optional&quot;&lt;br&gt;&lt;font color=&quot;#cc0000&quot;&gt;dct:acceptRights: dct:RightsStatement [0..1]&lt;br&gt;dct:description: rdfs:Literal [0..n]&lt;br&gt;dct:licence: dct:LicenseDocument [0..1]&lt;br&gt;dct:format: dct:MediaTypeOrExtent [0..n]&lt;br&gt;dcat:landingPage: foaf:Document [0..n]&lt;br&gt;&lt;/font&gt;" style="text;strokeColor=none;fillColor=none;align=left;verticalAlign=middle;spacingLeft=4;spacingRight=4;overflow=hidden;points=[[0,0.5],[1,0.5]];portConstraint=eastwest;rotatable=0;whiteSpace=wrap;html=1;" vertex="1" parent="J__374BZSMIU1kpbdkvT-20">
          <mxGeometry y="220" width="350" height="110" as="geometry" />
        </mxCell>
        <mxCell id="J__374BZSMIU1kpbdkvT-24" value="" style="endArrow=open;html=1;rounded=0;endFill=0;entryX=0.502;entryY=0.998;entryDx=0;entryDy=0;entryPerimeter=0;" edge="1" parent="1" target="sPD8ruUdRvM_z9ucQwdK-6">
          <mxGeometry width="50" height="50" relative="1" as="geometry">
            <mxPoint x="158" y="300" as="sourcePoint" />
            <mxPoint x="158.29000000000002" y="150" as="targetPoint" />
          </mxGeometry>
        </mxCell>
        <mxCell id="J__374BZSMIU1kpbdkvT-25" value="&lt;font style=&quot;font-size: 12px;&quot;&gt;dct:licence&lt;br&gt;&quot;recommended&quot;&lt;/font&gt;" style="edgeLabel;html=1;align=center;verticalAlign=middle;resizable=0;points=[];" connectable="0" vertex="1" parent="J__374BZSMIU1kpbdkvT-24">
          <mxGeometry x="0.0352" relative="1" as="geometry">
            <mxPoint as="offset" />
          </mxGeometry>
        </mxCell>
        <mxCell id="J__374BZSMIU1kpbdkvT-28" value="" style="endArrow=open;html=1;rounded=0;endFill=0;exitX=1.004;exitY=0.355;exitDx=0;exitDy=0;exitPerimeter=0;entryX=0;entryY=0.5;entryDx=0;entryDy=0;" edge="1" parent="1" target="J__374BZSMIU1kpbdkvT-18">
          <mxGeometry width="50" height="50" relative="1" as="geometry">
            <mxPoint x="281.12800000000016" y="360.3499999999999" as="sourcePoint" />
            <mxPoint x="490" y="360" as="targetPoint" />
          </mxGeometry>
        </mxCell>
        <mxCell id="J__374BZSMIU1kpbdkvT-29" value="&lt;font style=&quot;font-size: 12px;&quot;&gt;dcat:record&lt;br&gt;&quot;optional&quot;&lt;/font&gt;" style="edgeLabel;html=1;align=center;verticalAlign=middle;resizable=0;points=[];" connectable="0" vertex="1" parent="J__374BZSMIU1kpbdkvT-28">
          <mxGeometry x="0.0352" relative="1" as="geometry">
            <mxPoint as="offset" />
          </mxGeometry>
        </mxCell>
        <mxCell id="J__374BZSMIU1kpbdkvT-30" value="" style="endArrow=open;html=1;rounded=0;endFill=0;entryX=0;entryY=0.5;entryDx=0;entryDy=0;exitX=0.75;exitY=0;exitDx=0;exitDy=0;" edge="1" parent="1" source="J__374BZSMIU1kpbdkvT-6" target="J__374BZSMIU1kpbdkvT-23">
          <mxGeometry width="50" height="50" relative="1" as="geometry">
            <mxPoint x="240" y="280" as="sourcePoint" />
            <mxPoint x="420" y="110" as="targetPoint" />
          </mxGeometry>
        </mxCell>
        <mxCell id="J__374BZSMIU1kpbdkvT-31" value="&lt;font style=&quot;font-size: 12px;&quot;&gt;dct:service&lt;br&gt;&quot;recommended&quot;&lt;/font&gt;" style="edgeLabel;html=1;align=center;verticalAlign=middle;resizable=0;points=[];" connectable="0" vertex="1" parent="J__374BZSMIU1kpbdkvT-30">
          <mxGeometry x="0.0352" relative="1" as="geometry">
            <mxPoint as="offset" />
          </mxGeometry>
        </mxCell>
        <mxCell id="J__374BZSMIU1kpbdkvT-32" value="" style="endArrow=open;html=1;rounded=0;endFill=0;exitX=0.002;exitY=0.641;exitDx=0;exitDy=0;exitPerimeter=0;entryX=1.002;entryY=0.249;entryDx=0;entryDy=0;entryPerimeter=0;" edge="1" parent="1" source="J__374BZSMIU1kpbdkvT-22" target="sPD8ruUdRvM_z9ucQwdK-6">
          <mxGeometry width="50" height="50" relative="1" as="geometry">
            <mxPoint x="460" y="40" as="sourcePoint" />
            <mxPoint x="290" y="80" as="targetPoint" />
          </mxGeometry>
        </mxCell>
        <mxCell id="J__374BZSMIU1kpbdkvT-33" value="&lt;font style=&quot;font-size: 12px;&quot;&gt;dct:licence&lt;br&gt;&quot;optional&quot;&lt;/font&gt;" style="edgeLabel;html=1;align=center;verticalAlign=middle;resizable=0;points=[];" connectable="0" vertex="1" parent="J__374BZSMIU1kpbdkvT-32">
          <mxGeometry x="0.0352" relative="1" as="geometry">
            <mxPoint as="offset" />
          </mxGeometry>
        </mxCell>
        <mxCell id="J__374BZSMIU1kpbdkvT-34" value="" style="endArrow=open;html=1;rounded=0;endFill=0;entryX=0;entryY=0.5;entryDx=0;entryDy=0;" edge="1" parent="1" target="J__374BZSMIU1kpbdkvT-14">
          <mxGeometry width="50" height="50" relative="1" as="geometry">
            <mxPoint x="280" y="660" as="sourcePoint" />
            <mxPoint x="510" y="670" as="targetPoint" />
          </mxGeometry>
        </mxCell>
        <mxCell id="J__374BZSMIU1kpbdkvT-35" value="&lt;font style=&quot;font-size: 12px;&quot;&gt;dct:spatial&lt;br&gt;&quot;recommended&quot;&lt;/font&gt;" style="edgeLabel;html=1;align=center;verticalAlign=middle;resizable=0;points=[];" connectable="0" vertex="1" parent="J__374BZSMIU1kpbdkvT-34">
          <mxGeometry x="0.0352" relative="1" as="geometry">
            <mxPoint as="offset" />
          </mxGeometry>
        </mxCell>
        <mxCell id="J__374BZSMIU1kpbdkvT-37" value="" style="endArrow=open;html=1;rounded=0;endFill=0;entryX=0.116;entryY=-0.001;entryDx=0;entryDy=0;exitX=1;exitY=0.5;exitDx=0;exitDy=0;entryPerimeter=0;" edge="1" parent="1" source="J__374BZSMIU1kpbdkvT-22" target="J__374BZSMIU1kpbdkvT-2">
          <mxGeometry width="50" height="50" relative="1" as="geometry">
            <mxPoint x="840" y="-71" as="sourcePoint" />
            <mxPoint x="1037.5" y="60" as="targetPoint" />
            <Array as="points">
              <mxPoint x="995" y="-70" />
            </Array>
          </mxGeometry>
        </mxCell>
        <mxCell id="J__374BZSMIU1kpbdkvT-38" value="&lt;font style=&quot;font-size: 12px;&quot;&gt;dct:servesDataset&lt;br&gt;&quot;recommended&quot;&lt;/font&gt;" style="edgeLabel;html=1;align=center;verticalAlign=middle;resizable=0;points=[];" connectable="0" vertex="1" parent="J__374BZSMIU1kpbdkvT-37">
          <mxGeometry x="0.0352" relative="1" as="geometry">
            <mxPoint as="offset" />
          </mxGeometry>
        </mxCell>
        <mxCell id="J__374BZSMIU1kpbdkvT-39" value="" style="endArrow=block;html=1;rounded=0;entryX=0.5;entryY=1;entryDx=0;entryDy=0;endFill=0;fillColor=#fff2cc;strokeColor=#d6b656;strokeWidth=2;exitX=0.5;exitY=0;exitDx=0;exitDy=0;" edge="1" parent="1" source="J__374BZSMIU1kpbdkvT-2">
          <mxGeometry width="50" height="50" relative="1" as="geometry">
            <mxPoint x="1144.17" y="70" as="sourcePoint" />
            <mxPoint x="1144.17" y="-120" as="targetPoint" />
          </mxGeometry>
        </mxCell>
        <mxCell id="J__374BZSMIU1kpbdkvT-40" value="" style="endArrow=block;html=1;rounded=0;entryX=0;entryY=0.5;entryDx=0;entryDy=0;endFill=0;exitX=0.999;exitY=0.668;exitDx=0;exitDy=0;exitPerimeter=0;fillColor=#fff2cc;strokeColor=#d6b656;strokeWidth=2;" edge="1" parent="1" target="J__374BZSMIU1kpbdkvT-102">
          <mxGeometry width="50" height="50" relative="1" as="geometry">
            <mxPoint x="830.0000000000001" y="-149.12" as="sourcePoint" />
            <mxPoint x="1000.35" y="-150.88" as="targetPoint" />
          </mxGeometry>
        </mxCell>
        <mxCell id="J__374BZSMIU1kpbdkvT-43" value="" style="endArrow=open;html=1;rounded=0;endFill=0;exitX=0.002;exitY=0.083;exitDx=0;exitDy=0;exitPerimeter=0;" edge="1" parent="1" source="J__374BZSMIU1kpbdkvT-5">
          <mxGeometry width="50" height="50" relative="1" as="geometry">
            <mxPoint x="944.1" y="666.4000000000002" as="sourcePoint" />
            <mxPoint x="770" y="660" as="targetPoint" />
          </mxGeometry>
        </mxCell>
        <mxCell id="J__374BZSMIU1kpbdkvT-44" value="&lt;font style=&quot;font-size: 12px;&quot;&gt;dct:spatial&lt;br&gt;&quot;recommended&quot;&lt;/font&gt;" style="edgeLabel;html=1;align=center;verticalAlign=middle;resizable=0;points=[];" connectable="0" vertex="1" parent="J__374BZSMIU1kpbdkvT-43">
          <mxGeometry x="0.0352" relative="1" as="geometry">
            <mxPoint as="offset" />
          </mxGeometry>
        </mxCell>
        <mxCell id="J__374BZSMIU1kpbdkvT-45" value="" style="endArrow=open;html=1;rounded=0;endFill=0;exitX=1;exitY=0.231;exitDx=0;exitDy=0;exitPerimeter=0;entryX=0;entryY=0.719;entryDx=0;entryDy=0;entryPerimeter=0;" edge="1" parent="1">
          <mxGeometry width="50" height="50" relative="1" as="geometry">
            <mxPoint x="1341" y="150" as="sourcePoint" />
            <mxPoint x="1551" y="149" as="targetPoint" />
          </mxGeometry>
        </mxCell>
        <mxCell id="J__374BZSMIU1kpbdkvT-46" value="&lt;font style=&quot;font-size: 12px;&quot;&gt;dcat:distribution&lt;br&gt;&quot;&lt;font color=&quot;#00cc00&quot;&gt;mandatory&lt;/font&gt;&quot;&lt;/font&gt;" style="edgeLabel;html=1;align=center;verticalAlign=middle;resizable=0;points=[];" connectable="0" vertex="1" parent="J__374BZSMIU1kpbdkvT-45">
          <mxGeometry x="0.0352" relative="1" as="geometry">
            <mxPoint as="offset" />
          </mxGeometry>
        </mxCell>
        <mxCell id="J__374BZSMIU1kpbdkvT-47" value="" style="endArrow=open;html=1;rounded=0;endFill=0;exitX=1;exitY=0.231;exitDx=0;exitDy=0;exitPerimeter=0;entryX=-0.004;entryY=0.219;entryDx=0;entryDy=0;entryPerimeter=0;" edge="1" parent="1">
          <mxGeometry width="50" height="50" relative="1" as="geometry">
            <mxPoint x="1341" y="238" as="sourcePoint" />
            <mxPoint x="1550" y="238" as="targetPoint" />
          </mxGeometry>
        </mxCell>
        <mxCell id="J__374BZSMIU1kpbdkvT-48" value="&lt;font style=&quot;font-size: 12px;&quot;&gt;adms:sample&lt;br&gt;&quot;&lt;font color=&quot;#00cc00&quot;&gt;optional&lt;/font&gt;&quot;&lt;/font&gt;" style="edgeLabel;html=1;align=center;verticalAlign=middle;resizable=0;points=[];" connectable="0" vertex="1" parent="J__374BZSMIU1kpbdkvT-47">
          <mxGeometry x="0.0352" relative="1" as="geometry">
            <mxPoint as="offset" />
          </mxGeometry>
        </mxCell>
        <mxCell id="J__374BZSMIU1kpbdkvT-49" value="" style="endArrow=open;html=1;rounded=0;endFill=0;entryX=0.004;entryY=0.914;entryDx=0;entryDy=0;entryPerimeter=0;exitX=1;exitY=0.231;exitDx=0;exitDy=0;exitPerimeter=0;" edge="1" parent="1">
          <mxGeometry width="50" height="50" relative="1" as="geometry">
            <mxPoint x="1340" y="288" as="sourcePoint" />
            <mxPoint x="1551" y="288" as="targetPoint" />
          </mxGeometry>
        </mxCell>
        <mxCell id="J__374BZSMIU1kpbdkvT-50" value="&lt;font color=&quot;#00cc00&quot; style=&quot;font-size: 12px;&quot;&gt;healthdcatap:analytics&lt;br&gt;&quot;optional&quot;&lt;/font&gt;" style="edgeLabel;html=1;align=center;verticalAlign=middle;resizable=0;points=[];" connectable="0" vertex="1" parent="J__374BZSMIU1kpbdkvT-49">
          <mxGeometry x="0.0352" relative="1" as="geometry">
            <mxPoint as="offset" />
          </mxGeometry>
        </mxCell>
        <mxCell id="J__374BZSMIU1kpbdkvT-59" value="&lt;b style=&quot;&quot;&gt;&lt;font style=&quot;font-size: 14px;&quot;&gt;skos:Concept&lt;/font&gt;&lt;/b&gt;" style="swimlane;fontStyle=0;childLayout=stackLayout;horizontal=1;startSize=30;horizontalStack=0;resizeParent=1;resizeParentMax=0;resizeLast=0;collapsible=1;marginBottom=0;whiteSpace=wrap;html=1;" vertex="1" parent="1">
          <mxGeometry x="1611" y="710" width="260" height="150" as="geometry">
            <mxRectangle x="380" y="70" width="110" height="40" as="alternateBounds" />
          </mxGeometry>
        </mxCell>
        <mxCell id="J__374BZSMIU1kpbdkvT-60" value="&quot;mandatory&quot;&lt;br&gt;&lt;font color=&quot;#cc0000&quot;&gt;skos:prefLabel: rdfs:Literal [1..n]&lt;/font&gt;&lt;font color=&quot;#0066cc&quot;&gt;&lt;br&gt;&lt;/font&gt;" style="text;strokeColor=none;fillColor=none;align=left;verticalAlign=middle;spacingLeft=4;spacingRight=4;overflow=hidden;points=[[0,0.5],[1,0.5]];portConstraint=eastwest;rotatable=0;whiteSpace=wrap;html=1;" vertex="1" parent="J__374BZSMIU1kpbdkvT-59">
          <mxGeometry y="30" width="260" height="60" as="geometry" />
        </mxCell>
        <mxCell id="J__374BZSMIU1kpbdkvT-61" value="&quot;optional&quot;&lt;br&gt;&lt;span style=&quot;color: rgb(204, 0, 0);&quot;&gt;skos:inScheme: skos:ConceptScheme [0..n]&lt;/span&gt;&lt;font color=&quot;#cc0000&quot;&gt;&lt;br&gt;&lt;/font&gt;" style="text;strokeColor=none;fillColor=none;align=left;verticalAlign=middle;spacingLeft=4;spacingRight=4;overflow=hidden;points=[[0,0.5],[1,0.5]];portConstraint=eastwest;rotatable=0;whiteSpace=wrap;html=1;" vertex="1" parent="J__374BZSMIU1kpbdkvT-59">
          <mxGeometry y="90" width="260" height="60" as="geometry" />
        </mxCell>
        <mxCell id="J__374BZSMIU1kpbdkvT-62" value="" style="endArrow=open;html=1;rounded=0;endFill=0;exitX=1;exitY=0.231;exitDx=0;exitDy=0;exitPerimeter=0;" edge="1" parent="1">
          <mxGeometry width="50" height="50" relative="1" as="geometry">
            <mxPoint x="1340" y="731" as="sourcePoint" />
            <mxPoint x="1611" y="731" as="targetPoint" />
          </mxGeometry>
        </mxCell>
        <mxCell id="J__374BZSMIU1kpbdkvT-63" value="&lt;font style=&quot;font-size: 12px;&quot;&gt;dcat:theme&lt;br&gt;&lt;font color=&quot;#00cc00&quot;&gt;&quot;mandatory&quot;&lt;/font&gt;&lt;/font&gt;" style="edgeLabel;html=1;align=center;verticalAlign=middle;resizable=0;points=[];" connectable="0" vertex="1" parent="J__374BZSMIU1kpbdkvT-62">
          <mxGeometry x="0.0352" relative="1" as="geometry">
            <mxPoint as="offset" />
          </mxGeometry>
        </mxCell>
        <mxCell id="J__374BZSMIU1kpbdkvT-64" value="" style="endArrow=open;html=1;rounded=0;endFill=0;exitX=1;exitY=0.231;exitDx=0;exitDy=0;exitPerimeter=0;" edge="1" parent="1">
          <mxGeometry width="50" height="50" relative="1" as="geometry">
            <mxPoint x="1341" y="769" as="sourcePoint" />
            <mxPoint x="1612" y="769" as="targetPoint" />
          </mxGeometry>
        </mxCell>
        <mxCell id="J__374BZSMIU1kpbdkvT-65" value="&lt;font color=&quot;#00cc00&quot; style=&quot;font-size: 12px;&quot;&gt;healthdcatap:healthcategory&lt;br&gt;&quot;mandatory&quot;&lt;/font&gt;" style="edgeLabel;html=1;align=center;verticalAlign=middle;resizable=0;points=[];" connectable="0" vertex="1" parent="J__374BZSMIU1kpbdkvT-64">
          <mxGeometry x="0.0352" relative="1" as="geometry">
            <mxPoint as="offset" />
          </mxGeometry>
        </mxCell>
        <mxCell id="J__374BZSMIU1kpbdkvT-66" value="" style="endArrow=open;html=1;rounded=0;endFill=0;exitX=1;exitY=0.231;exitDx=0;exitDy=0;exitPerimeter=0;" edge="1" parent="1">
          <mxGeometry width="50" height="50" relative="1" as="geometry">
            <mxPoint x="1341" y="811" as="sourcePoint" />
            <mxPoint x="1612" y="811" as="targetPoint" />
          </mxGeometry>
        </mxCell>
        <mxCell id="J__374BZSMIU1kpbdkvT-67" value="&lt;font color=&quot;#00cc00&quot; style=&quot;font-size: 12px;&quot;&gt;healthdcatap:healthTheme&lt;br&gt;&quot;recommended&quot;&lt;/font&gt;" style="edgeLabel;html=1;align=center;verticalAlign=middle;resizable=0;points=[];" connectable="0" vertex="1" parent="J__374BZSMIU1kpbdkvT-66">
          <mxGeometry x="0.0352" relative="1" as="geometry">
            <mxPoint as="offset" />
          </mxGeometry>
        </mxCell>
        <mxCell id="J__374BZSMIU1kpbdkvT-74" value="&lt;b style=&quot;border-color: var(--border-color);&quot;&gt;eli:LegalResource&lt;/b&gt;" style="rounded=0;whiteSpace=wrap;html=1;fillColor=#f5f5f5;fontColor=#333333;strokeColor=#666666;" vertex="1" parent="1">
          <mxGeometry x="2030" y="650" width="170" height="60" as="geometry" />
        </mxCell>
        <mxCell id="J__374BZSMIU1kpbdkvT-75" value="&lt;span style=&quot;border-color: var(--border-color);&quot;&gt;&quot;data Type&quot;&lt;br&gt;&lt;b&gt;xsd:decimal&lt;/b&gt;&lt;br&gt;&lt;/span&gt;" style="rounded=0;whiteSpace=wrap;html=1;fillColor=#f5f5f5;fontColor=#333333;strokeColor=#666666;" vertex="1" parent="1">
          <mxGeometry x="2030" y="730" width="170" height="60" as="geometry" />
        </mxCell>
        <mxCell id="J__374BZSMIU1kpbdkvT-76" value="&lt;span style=&quot;border-color: var(--border-color);&quot;&gt;&quot;data Type&quot;&lt;br&gt;&lt;b&gt;xsd:duration&lt;/b&gt;&lt;br&gt;&lt;/span&gt;" style="rounded=0;whiteSpace=wrap;html=1;fillColor=#f5f5f5;fontColor=#333333;strokeColor=#666666;" vertex="1" parent="1">
          <mxGeometry x="2030" y="810" width="170" height="60" as="geometry" />
        </mxCell>
        <mxCell id="J__374BZSMIU1kpbdkvT-77" value="&lt;span style=&quot;border-color: var(--border-color);&quot;&gt;&quot;data Type&quot;&lt;br&gt;&lt;b&gt;xsd:hexBinary&lt;/b&gt;&lt;br&gt;&lt;/span&gt;" style="rounded=0;whiteSpace=wrap;html=1;fillColor=#f5f5f5;fontColor=#333333;strokeColor=#666666;" vertex="1" parent="1">
          <mxGeometry x="2030" y="890" width="170" height="60" as="geometry" />
        </mxCell>
        <mxCell id="J__374BZSMIU1kpbdkvT-78" value="&lt;span style=&quot;border-color: var(--border-color);&quot;&gt;&quot;data Type&quot;&lt;br&gt;&lt;b&gt;xsd:nonNegativeInteger&lt;/b&gt;&lt;br&gt;&lt;/span&gt;" style="rounded=0;whiteSpace=wrap;html=1;fillColor=#f5f5f5;fontColor=#333333;strokeColor=#666666;" vertex="1" parent="1">
          <mxGeometry x="2030" y="970" width="170" height="60" as="geometry" />
        </mxCell>
        <mxCell id="J__374BZSMIU1kpbdkvT-79" value="&lt;span style=&quot;border-color: var(--border-color);&quot;&gt;&quot;data Type&quot;&lt;br&gt;&lt;b&gt;xsd:dateTime&lt;/b&gt;&lt;br&gt;&lt;/span&gt;" style="rounded=0;whiteSpace=wrap;html=1;fillColor=#f5f5f5;fontColor=#333333;strokeColor=#666666;" vertex="1" parent="1">
          <mxGeometry x="2030" y="1050" width="170" height="60" as="geometry" />
        </mxCell>
        <mxCell id="J__374BZSMIU1kpbdkvT-80" value="&lt;span style=&quot;border-color: var(--border-color);&quot;&gt;&quot;data Type&quot;&lt;br&gt;&lt;b&gt;xsd:Temporal literal&lt;/b&gt;&lt;br&gt;&lt;/span&gt;" style="rounded=0;whiteSpace=wrap;html=1;fillColor=#f5f5f5;fontColor=#333333;strokeColor=#666666;" vertex="1" parent="1">
          <mxGeometry x="2030" y="1130" width="170" height="60" as="geometry" />
        </mxCell>
        <mxCell id="J__374BZSMIU1kpbdkvT-81" value="&lt;span style=&quot;border-color: var(--border-color);&quot;&gt;&lt;b&gt;prov:Activity&lt;/b&gt;&lt;br&gt;&lt;/span&gt;" style="rounded=0;whiteSpace=wrap;html=1;fillColor=#f5f5f5;fontColor=#333333;strokeColor=#666666;" vertex="1" parent="1">
          <mxGeometry x="2030" y="1215" width="170" height="60" as="geometry" />
        </mxCell>
        <mxCell id="J__374BZSMIU1kpbdkvT-82" value="" style="endArrow=open;html=1;rounded=0;endFill=0;exitX=0.633;exitY=1.01;exitDx=0;exitDy=0;exitPerimeter=0;entryX=-0.004;entryY=0.384;entryDx=0;entryDy=0;entryPerimeter=0;" edge="1" parent="1" source="J__374BZSMIU1kpbdkvT-5" target="sPD8ruUdRvM_z9ucQwdK-16">
          <mxGeometry width="50" height="50" relative="1" as="geometry">
            <mxPoint x="1100" y="1020" as="sourcePoint" />
            <mxPoint x="1300" y="1210" as="targetPoint" />
            <Array as="points">
              <mxPoint x="1200" y="1221" />
            </Array>
          </mxGeometry>
        </mxCell>
        <mxCell id="J__374BZSMIU1kpbdkvT-83" value="&lt;font style=&quot;font-size: 12px;&quot;&gt;dct:inSeries&lt;br&gt;&lt;/font&gt;" style="edgeLabel;html=1;align=center;verticalAlign=middle;resizable=0;points=[];" connectable="0" vertex="1" parent="J__374BZSMIU1kpbdkvT-82">
          <mxGeometry x="0.0352" relative="1" as="geometry">
            <mxPoint as="offset" />
          </mxGeometry>
        </mxCell>
        <mxCell id="J__374BZSMIU1kpbdkvT-86" value="" style="endArrow=open;html=1;rounded=0;endFill=0;exitX=0.22;exitY=1.01;exitDx=0;exitDy=0;exitPerimeter=0;entryX=1;entryY=0.5;entryDx=0;entryDy=0;" edge="1" parent="1" source="J__374BZSMIU1kpbdkvT-5" target="J__374BZSMIU1kpbdkvT-11">
          <mxGeometry width="50" height="50" relative="1" as="geometry">
            <mxPoint x="1020" y="1040" as="sourcePoint" />
            <mxPoint x="790" y="1190" as="targetPoint" />
          </mxGeometry>
        </mxCell>
        <mxCell id="J__374BZSMIU1kpbdkvT-87" value="&lt;font style=&quot;font-size: 12px;&quot;&gt;dct:publisher&lt;br&gt;&quot;&lt;font color=&quot;#00cc00&quot;&gt;mandatory&lt;/font&gt;&quot;&lt;/font&gt;" style="edgeLabel;html=1;align=center;verticalAlign=middle;resizable=0;points=[];" connectable="0" vertex="1" parent="J__374BZSMIU1kpbdkvT-86">
          <mxGeometry x="0.0352" relative="1" as="geometry">
            <mxPoint as="offset" />
          </mxGeometry>
        </mxCell>
        <mxCell id="J__374BZSMIU1kpbdkvT-88" value="" style="endArrow=open;html=1;rounded=0;endFill=0;exitX=0.574;exitY=1;exitDx=0;exitDy=0;exitPerimeter=0;entryX=0;entryY=0.187;entryDx=0;entryDy=0;entryPerimeter=0;" edge="1" parent="1" source="J__374BZSMIU1kpbdkvT-9" target="J__374BZSMIU1kpbdkvT-10">
          <mxGeometry width="50" height="50" relative="1" as="geometry">
            <mxPoint x="180" y="731" as="sourcePoint" />
            <mxPoint x="530" y="1110" as="targetPoint" />
          </mxGeometry>
        </mxCell>
        <mxCell id="J__374BZSMIU1kpbdkvT-89" value="&lt;font style=&quot;font-size: 12px;&quot;&gt;dct:publisher&lt;br&gt;&quot;mandatory&quot;&lt;/font&gt;" style="edgeLabel;html=1;align=center;verticalAlign=middle;resizable=0;points=[];" connectable="0" vertex="1" parent="J__374BZSMIU1kpbdkvT-88">
          <mxGeometry x="0.0352" relative="1" as="geometry">
            <mxPoint as="offset" />
          </mxGeometry>
        </mxCell>
        <mxCell id="J__374BZSMIU1kpbdkvT-90" value="" style="endArrow=open;html=1;rounded=0;endFill=0;exitX=0.433;exitY=0.995;exitDx=0;exitDy=0;exitPerimeter=0;entryX=-0.006;entryY=0.631;entryDx=0;entryDy=0;entryPerimeter=0;" edge="1" parent="1" source="J__374BZSMIU1kpbdkvT-9" target="J__374BZSMIU1kpbdkvT-11">
          <mxGeometry width="50" height="50" relative="1" as="geometry">
            <mxPoint x="130" y="780" as="sourcePoint" />
            <mxPoint x="480" y="1159" as="targetPoint" />
            <Array as="points">
              <mxPoint x="120" y="1210" />
            </Array>
          </mxGeometry>
        </mxCell>
        <mxCell id="J__374BZSMIU1kpbdkvT-91" value="&lt;font style=&quot;font-size: 12px;&quot;&gt;dct:creator&lt;br&gt;&quot;optional&quot;&lt;/font&gt;" style="edgeLabel;html=1;align=center;verticalAlign=middle;resizable=0;points=[];" connectable="0" vertex="1" parent="J__374BZSMIU1kpbdkvT-90">
          <mxGeometry x="0.0352" relative="1" as="geometry">
            <mxPoint as="offset" />
          </mxGeometry>
        </mxCell>
        <mxCell id="J__374BZSMIU1kpbdkvT-93" value="" style="endArrow=open;html=1;rounded=0;endFill=0;exitX=1;exitY=0.59;exitDx=0;exitDy=0;exitPerimeter=0;entryX=0.004;entryY=0.786;entryDx=0;entryDy=0;entryPerimeter=0;" edge="1" parent="1" target="BR2aq6sNMjBqUebuZWKb-3">
          <mxGeometry width="50" height="50" relative="1" as="geometry">
            <mxPoint x="280" y="700" as="sourcePoint" />
            <mxPoint x="630" y="1079" as="targetPoint" />
          </mxGeometry>
        </mxCell>
        <mxCell id="J__374BZSMIU1kpbdkvT-94" value="&lt;font style=&quot;font-size: 12px;&quot;&gt;dct:temporal&lt;br&gt;&quot;optional&quot;&lt;/font&gt;" style="edgeLabel;html=1;align=center;verticalAlign=middle;resizable=0;points=[];" connectable="0" vertex="1" parent="J__374BZSMIU1kpbdkvT-93">
          <mxGeometry x="0.0352" relative="1" as="geometry">
            <mxPoint as="offset" />
          </mxGeometry>
        </mxCell>
        <mxCell id="J__374BZSMIU1kpbdkvT-96" value="" style="endArrow=open;html=1;rounded=0;endFill=0;exitX=-0.006;exitY=0.45;exitDx=0;exitDy=0;exitPerimeter=0;entryX=1.007;entryY=0.742;entryDx=0;entryDy=0;entryPerimeter=0;" edge="1" parent="1" source="J__374BZSMIU1kpbdkvT-5" target="BR2aq6sNMjBqUebuZWKb-3">
          <mxGeometry width="50" height="50" relative="1" as="geometry">
            <mxPoint x="360" y="841.5" as="sourcePoint" />
            <mxPoint x="621" y="998.5" as="targetPoint" />
          </mxGeometry>
        </mxCell>
        <mxCell id="J__374BZSMIU1kpbdkvT-97" value="&lt;font style=&quot;font-size: 12px;&quot;&gt;dct:temporal&lt;br&gt;&quot;recommended&quot;&lt;/font&gt;" style="edgeLabel;html=1;align=center;verticalAlign=middle;resizable=0;points=[];" connectable="0" vertex="1" parent="J__374BZSMIU1kpbdkvT-96">
          <mxGeometry x="0.0352" relative="1" as="geometry">
            <mxPoint as="offset" />
          </mxGeometry>
        </mxCell>
        <mxCell id="J__374BZSMIU1kpbdkvT-98" value="" style="endArrow=open;html=1;rounded=0;endFill=0;entryX=0.996;entryY=0.862;entryDx=0;entryDy=0;entryPerimeter=0;exitX=0.477;exitY=1.007;exitDx=0;exitDy=0;exitPerimeter=0;" edge="1" parent="1" source="J__374BZSMIU1kpbdkvT-5" target="J__374BZSMIU1kpbdkvT-11">
          <mxGeometry width="50" height="50" relative="1" as="geometry">
            <mxPoint x="1068.1899999999996" y="1019.9999999999999" as="sourcePoint" />
            <mxPoint x="770.0000000000001" y="1258.34" as="targetPoint" />
            <Array as="points">
              <mxPoint x="1136" y="1220" />
            </Array>
          </mxGeometry>
        </mxCell>
        <mxCell id="J__374BZSMIU1kpbdkvT-99" value="&lt;font style=&quot;font-size: 12px;&quot;&gt;dct:creator&lt;br&gt;&quot;optional&quot;&lt;/font&gt;" style="edgeLabel;html=1;align=center;verticalAlign=middle;resizable=0;points=[];" connectable="0" vertex="1" parent="J__374BZSMIU1kpbdkvT-98">
          <mxGeometry x="0.0352" relative="1" as="geometry">
            <mxPoint as="offset" />
          </mxGeometry>
        </mxCell>
        <mxCell id="J__374BZSMIU1kpbdkvT-100" value="" style="endArrow=open;html=1;rounded=0;endFill=0;exitX=1.004;exitY=0.355;exitDx=0;exitDy=0;exitPerimeter=0;" edge="1" parent="1">
          <mxGeometry width="50" height="50" relative="1" as="geometry">
            <mxPoint x="279.99800000000016" y="544.5799999999999" as="sourcePoint" />
            <mxPoint x="940" y="540" as="targetPoint" />
          </mxGeometry>
        </mxCell>
        <mxCell id="J__374BZSMIU1kpbdkvT-101" value="&lt;font style=&quot;font-size: 12px;&quot;&gt;dcat:dataset&lt;br&gt;&quot;recommended&quot;&lt;/font&gt;" style="edgeLabel;html=1;align=center;verticalAlign=middle;resizable=0;points=[];" connectable="0" vertex="1" parent="J__374BZSMIU1kpbdkvT-100">
          <mxGeometry x="0.0352" relative="1" as="geometry">
            <mxPoint as="offset" />
          </mxGeometry>
        </mxCell>
        <mxCell id="J__374BZSMIU1kpbdkvT-102" value="&lt;b style=&quot;border-color: var(--border-color);&quot;&gt;&lt;font style=&quot;font-size: 14px;&quot;&gt;dcat:Resource&lt;/font&gt;&lt;/b&gt;" style="rounded=0;whiteSpace=wrap;html=1;fillColor=#fff2cc;strokeColor=#d6b656;" vertex="1" parent="1">
          <mxGeometry x="1060" y="-180" width="170" height="60" as="geometry" />
        </mxCell>
        <mxCell id="J__374BZSMIU1kpbdkvT-103" value="" style="endArrow=open;html=1;rounded=0;endFill=0;" edge="1" parent="1" source="J__374BZSMIU1kpbdkvT-5" target="J__374BZSMIU1kpbdkvT-10">
          <mxGeometry width="50" height="50" relative="1" as="geometry">
            <mxPoint x="940" y="980" as="sourcePoint" />
            <mxPoint x="710" y="1130" as="targetPoint" />
          </mxGeometry>
        </mxCell>
        <mxCell id="J__374BZSMIU1kpbdkvT-104" value="&lt;font color=&quot;#00cc00&quot; style=&quot;font-size: 12px;&quot;&gt;healthdcatap:hdab&lt;br&gt;&quot;mandatory&quot;&lt;/font&gt;" style="edgeLabel;html=1;align=center;verticalAlign=middle;resizable=0;points=[];" connectable="0" vertex="1" parent="J__374BZSMIU1kpbdkvT-103">
          <mxGeometry x="0.0352" relative="1" as="geometry">
            <mxPoint as="offset" />
          </mxGeometry>
        </mxCell>
        <mxCell id="J__374BZSMIU1kpbdkvT-105" value="" style="endArrow=block;html=1;rounded=0;endFill=0;exitX=1;exitY=0.329;exitDx=0;exitDy=0;exitPerimeter=0;fillColor=#fff2cc;strokeColor=#d6b656;strokeWidth=2;entryX=1;entryY=0.5;entryDx=0;entryDy=0;" edge="1" parent="1" source="sPD8ruUdRvM_z9ucQwdK-16" target="J__374BZSMIU1kpbdkvT-102">
          <mxGeometry width="50" height="50" relative="1" as="geometry">
            <mxPoint x="1670" y="1282" as="sourcePoint" />
            <mxPoint x="1270" y="20" as="targetPoint" />
            <Array as="points">
              <mxPoint x="1960" y="1216" />
              <mxPoint x="1960" y="-150" />
            </Array>
          </mxGeometry>
        </mxCell>
        <mxCell id="J__374BZSMIU1kpbdkvT-106" value="" style="endArrow=open;html=1;rounded=0;endFill=0;strokeColor=default;" edge="1" parent="1">
          <mxGeometry width="50" height="50" relative="1" as="geometry">
            <mxPoint x="1000" y="10" as="sourcePoint" />
            <mxPoint x="1120" y="-120" as="targetPoint" />
          </mxGeometry>
        </mxCell>
        <mxCell id="J__374BZSMIU1kpbdkvT-108" value="" style="endArrow=none;html=1;rounded=0;exitX=1.005;exitY=0.3;exitDx=0;exitDy=0;exitPerimeter=0;" edge="1" parent="1" source="J__374BZSMIU1kpbdkvT-17">
          <mxGeometry width="50" height="50" relative="1" as="geometry">
            <mxPoint x="740" y="330" as="sourcePoint" />
            <mxPoint x="990" y="20" as="targetPoint" />
          </mxGeometry>
        </mxCell>
        <mxCell id="J__374BZSMIU1kpbdkvT-110" value="foaf:primaryTopic&lt;br style=&quot;border-color: var(--border-color); font-size: 12px;&quot;&gt;&lt;span style=&quot;font-size: 12px;&quot;&gt;&quot;recommended&quot;&lt;/span&gt;" style="edgeLabel;html=1;align=center;verticalAlign=middle;resizable=0;points=[];" connectable="0" vertex="1" parent="J__374BZSMIU1kpbdkvT-108">
          <mxGeometry x="0.1571" relative="1" as="geometry">
            <mxPoint as="offset" />
          </mxGeometry>
        </mxCell>
        <mxCell id="J__374BZSMIU1kpbdkvT-111" value="" style="endArrow=open;html=1;rounded=0;endFill=0;entryX=0.5;entryY=0;entryDx=0;entryDy=0;" edge="1" parent="1" target="sPD8ruUdRvM_z9ucQwdK-4">
          <mxGeometry width="50" height="50" relative="1" as="geometry">
            <mxPoint x="1750" y="90" as="sourcePoint" />
            <mxPoint x="130" y="-330" as="targetPoint" />
            <Array as="points">
              <mxPoint x="1750" y="-270" />
              <mxPoint x="158" y="-270" />
            </Array>
          </mxGeometry>
        </mxCell>
        <mxCell id="J__374BZSMIU1kpbdkvT-112" value="&lt;font style=&quot;font-size: 12px;&quot;&gt;dct:licence&lt;br&gt;&quot;recommended&quot;&lt;/font&gt;" style="edgeLabel;html=1;align=center;verticalAlign=middle;resizable=0;points=[];" connectable="0" vertex="1" parent="J__374BZSMIU1kpbdkvT-111">
          <mxGeometry x="0.0352" relative="1" as="geometry">
            <mxPoint as="offset" />
          </mxGeometry>
        </mxCell>
        <mxCell id="J__374BZSMIU1kpbdkvT-114" value="" style="endArrow=open;html=1;rounded=0;endFill=0;entryX=-0.007;entryY=0.217;entryDx=0;entryDy=0;exitX=0;exitY=0.5;exitDx=0;exitDy=0;entryPerimeter=0;" edge="1" parent="1" source="J__374BZSMIU1kpbdkvT-21" target="J__374BZSMIU1kpbdkvT-12">
          <mxGeometry width="50" height="50" relative="1" as="geometry">
            <mxPoint x="156.8499999999999" y="-363.59000000000003" as="sourcePoint" />
            <mxPoint x="210" y="1083.6" as="targetPoint" />
            <Array as="points">
              <mxPoint x="-90" y="-165" />
              <mxPoint x="-90" y="1243" />
            </Array>
          </mxGeometry>
        </mxCell>
        <mxCell id="J__374BZSMIU1kpbdkvT-115" value="&lt;font style=&quot;font-size: 12px;&quot;&gt;dct:publisher&lt;br&gt;&quot;recommended&quot;&lt;/font&gt;" style="edgeLabel;html=1;align=center;verticalAlign=middle;resizable=0;points=[];" connectable="0" vertex="1" parent="J__374BZSMIU1kpbdkvT-114">
          <mxGeometry x="0.0352" relative="1" as="geometry">
            <mxPoint as="offset" />
          </mxGeometry>
        </mxCell>
        <mxCell id="FXICKRSTqTETft_6AmAn-5" value="&lt;b style=&quot;font-family: sans-serif; font-size: 20px; text-align: start;&quot;&gt;PROTECTED DATA HealthDCAT-AP&lt;/b&gt;&lt;div&gt;&lt;font style=&quot;text-wrap-mode: nowrap; font-size: 20px;&quot;&gt;&lt;b&gt;&lt;span style=&quot;font-family: sans-serif; text-align: start; text-wrap-mode: wrap; background-color: rgb(255, 255, 255);&quot;&gt;Copyright © 2024&amp;nbsp;&lt;/span&gt;&lt;/b&gt;&lt;/font&gt;&lt;b style=&quot;font-size: 20px; text-wrap-mode: nowrap; background-color: initial;&quot;&gt;https://healthdcat-ap.github.io/&lt;/b&gt;&lt;/div&gt;" style="text;html=1;align=center;verticalAlign=middle;whiteSpace=wrap;rounded=0;" vertex="1" parent="1">
          <mxGeometry x="-220" y="-450" width="740" height="140" as="geometry" />
        </mxCell>
      </root>
    </mxGraphModel>
  </diagram>
</mxfile>
